# Blender 3.5.1
# www.blender.org
mtllib crown.mtl
o Star
v 0.500000 0.000000 0.000000
v 0.809017 1.000000 -0.587785
v 0.154509 0.000000 -0.475528
v -0.309017 1.000000 -0.951057
v -0.404509 0.000000 -0.293893
v -1.000000 1.000000 -0.000000
v -0.404509 0.000000 0.293893
v -0.309017 1.000000 0.951057
v 0.154509 0.000000 0.475528
v 0.809017 1.000000 0.587785
v 0.000000 0.500000 0.000000
vn -0.6951 0.5116 0.5050
vn 0.2655 0.5116 0.8171
vn 0.8592 0.5116 -0.0000
vn 0.2655 0.5116 -0.8171
vn -0.6951 0.5116 -0.5050
vn 0.6857 -0.3791 0.6214
vn 0.8029 -0.3791 -0.4601
vn -0.1895 -0.3791 -0.9058
vn -0.9200 -0.3791 -0.0996
vn -0.3791 -0.3791 0.8442
vn 0.6290 0.6290 -0.4570
vn -0.2402 0.6290 -0.7394
vn -0.7774 0.6290 -0.0000
vn -0.2402 0.6290 0.7394
vn 0.6290 0.6290 0.4570
s 0
f 1//1 2//1 3//1
f 3//2 4//2 5//2
f 5//3 6//3 7//3
f 7//4 8//4 9//4
f 9//5 10//5 1//5
f 11//6 3//6 2//6
f 11//7 5//7 4//7
f 11//8 7//8 6//8
f 11//9 9//9 8//9
f 11//10 1//10 10//10
f 1//11 3//11 11//11
f 3//12 5//12 11//12
f 5//13 7//13 11//13
f 7//14 9//14 11//14
f 9//15 1//15 11//15
